<svg id="Layer_1" data-name="Layer 1" xmlns="http://www.w3.org/2000/svg" viewBox="0 0 612 792"><defs><style>.cls-1{fill:#fff200;}.cls-2{fill:#231f20;}</style></defs><circle class="cls-1" cx="306.89" cy="380.95" r="199.73"/><circle class="cls-2" cx="228.27" cy="335.04" r="35.99"/><circle class="cls-2" cx="383.4" cy="335.04" r="35.99"/><path class="cls-2" d="M306,533.18c-1.59,0-3.17,0-4.76-.08a154.52,154.52,0,0,1-80.61-25.79,159,159,0,0,1-55.82-64.48l19.88-9.43A137,137,0,0,0,232.81,489a131.83,131.83,0,0,0,144.42,1.32,136.83,136.83,0,0,0,51.72-60l20.09,9a158.65,158.65,0,0,1-60,69.6A154.37,154.37,0,0,1,306,533.18Z"/></svg>